<svg width="136" height="58" viewBox="0 0 136 58" fill="none" xmlns="http://www.w3.org/2000/svg">
<path d="M51.344 19.608C51.152 19.944 50.944 20.192 50.72 20.352C50.512 20.496 50.248 20.568 49.928 20.568C49.592 20.568 49.224 20.448 48.824 20.208C48.44 19.952 47.976 19.672 47.432 19.368C46.888 19.064 46.248 18.792 45.512 18.552C44.792 18.296 43.936 18.168 42.944 18.168C42.048 18.168 41.264 18.28 40.592 18.504C39.92 18.712 39.352 19.008 38.888 19.392C38.44 19.776 38.104 20.24 37.88 20.784C37.656 21.312 37.544 21.896 37.544 22.536C37.544 23.352 37.768 24.032 38.216 24.576C38.68 25.12 39.288 25.584 40.04 25.968C40.792 26.352 41.648 26.696 42.608 27C43.568 27.304 44.552 27.632 45.56 27.984C46.568 28.32 47.552 28.72 48.512 29.184C49.472 29.632 50.328 30.208 51.08 30.912C51.832 31.6 52.432 32.448 52.88 33.456C53.344 34.464 53.576 35.688 53.576 37.128C53.576 38.696 53.304 40.168 52.76 41.544C52.232 42.904 51.448 44.096 50.408 45.12C49.384 46.128 48.128 46.928 46.64 47.52C45.152 48.096 43.448 48.384 41.528 48.384C40.424 48.384 39.336 48.272 38.264 48.048C37.192 47.84 36.16 47.536 35.168 47.136C34.192 46.736 33.272 46.256 32.408 45.696C31.544 45.136 30.776 44.512 30.104 43.824L32 40.728C32.16 40.504 32.368 40.32 32.624 40.176C32.88 40.016 33.152 39.936 33.44 39.936C33.84 39.936 34.272 40.104 34.736 40.44C35.2 40.76 35.752 41.12 36.392 41.52C37.032 41.92 37.776 42.288 38.624 42.624C39.488 42.944 40.52 43.104 41.72 43.104C43.56 43.104 44.984 42.672 45.992 41.808C47 40.928 47.504 39.672 47.504 38.04C47.504 37.128 47.272 36.384 46.808 35.808C46.36 35.232 45.76 34.752 45.008 34.368C44.256 33.968 43.4 33.632 42.44 33.36C41.48 33.088 40.504 32.792 39.512 32.472C38.52 32.152 37.544 31.768 36.584 31.32C35.624 30.872 34.768 30.288 34.016 29.568C33.264 28.848 32.656 27.952 32.192 26.88C31.744 25.792 31.52 24.456 31.52 22.872C31.52 21.608 31.768 20.376 32.264 19.176C32.776 17.976 33.512 16.912 34.472 15.984C35.432 15.056 36.616 14.312 38.024 13.752C39.432 13.192 41.048 12.912 42.872 12.912C44.92 12.912 46.808 13.232 48.536 13.872C50.264 14.512 51.736 15.408 52.952 16.56L51.344 19.608ZM75.818 28.584C75.642 28.808 75.466 28.984 75.29 29.112C75.13 29.24 74.89 29.304 74.57 29.304C74.266 29.304 73.97 29.216 73.682 29.04C73.394 28.848 73.05 28.64 72.65 28.416C72.25 28.176 71.77 27.968 71.21 27.792C70.666 27.6 69.986 27.504 69.17 27.504C68.13 27.504 67.218 27.696 66.434 28.08C65.65 28.448 64.994 28.984 64.466 29.688C63.954 30.392 63.57 31.248 63.314 32.256C63.058 33.248 62.93 34.376 62.93 35.64C62.93 36.952 63.066 38.12 63.338 39.144C63.626 40.168 64.034 41.032 64.562 41.736C65.09 42.424 65.73 42.952 66.482 43.32C67.234 43.672 68.082 43.848 69.026 43.848C69.97 43.848 70.73 43.736 71.306 43.512C71.898 43.272 72.394 43.016 72.794 42.744C73.194 42.456 73.538 42.2 73.826 41.976C74.13 41.736 74.466 41.616 74.834 41.616C75.314 41.616 75.674 41.8 75.914 42.168L77.618 44.328C76.962 45.096 76.25 45.744 75.482 46.272C74.714 46.784 73.914 47.2 73.082 47.52C72.266 47.824 71.418 48.04 70.538 48.168C69.674 48.296 68.81 48.36 67.946 48.36C66.426 48.36 64.994 48.08 63.65 47.52C62.306 46.944 61.13 46.112 60.122 45.024C59.114 43.936 58.314 42.608 57.722 41.04C57.146 39.456 56.858 37.656 56.858 35.64C56.858 33.832 57.114 32.16 57.626 30.624C58.154 29.072 58.922 27.736 59.93 26.616C60.938 25.48 62.186 24.592 63.674 23.952C65.162 23.312 66.874 22.992 68.81 22.992C70.65 22.992 72.258 23.288 73.634 23.88C75.026 24.472 76.274 25.32 77.378 26.424L75.818 28.584ZM86.9263 27.648C87.6943 26.176 88.6063 25.024 89.6623 24.192C90.7183 23.344 91.9663 22.92 93.4062 22.92C94.5423 22.92 95.4543 23.168 96.1423 23.664L95.7583 28.104C95.6783 28.392 95.5583 28.6 95.3983 28.728C95.2543 28.84 95.0543 28.896 94.7983 28.896C94.5583 28.896 94.1983 28.856 93.7183 28.776C93.2543 28.696 92.7983 28.656 92.3503 28.656C91.6943 28.656 91.1103 28.752 90.5983 28.944C90.0863 29.136 89.6223 29.416 89.2063 29.784C88.8063 30.136 88.4463 30.568 88.1263 31.08C87.8223 31.592 87.5343 32.176 87.2623 32.832V48H81.3343V23.376H84.8143C85.4223 23.376 85.8463 23.488 86.0863 23.712C86.3263 23.92 86.4863 24.304 86.5663 24.864L86.9263 27.648ZM105.385 23.376V48H99.4325V23.376H105.385ZM106.201 16.2C106.201 16.712 106.097 17.192 105.889 17.64C105.681 18.088 105.401 18.48 105.049 18.816C104.713 19.152 104.313 19.424 103.849 19.632C103.385 19.824 102.889 19.92 102.361 19.92C101.849 19.92 101.361 19.824 100.897 19.632C100.449 19.424 100.057 19.152 99.7205 18.816C99.3845 18.48 99.1125 18.088 98.9045 17.64C98.7125 17.192 98.6165 16.712 98.6165 16.2C98.6165 15.672 98.7125 15.176 98.9045 14.712C99.1125 14.248 99.3845 13.848 99.7205 13.512C100.057 13.176 100.449 12.912 100.897 12.72C101.361 12.512 101.849 12.408 102.361 12.408C102.889 12.408 103.385 12.512 103.849 12.72C104.313 12.912 104.713 13.176 105.049 13.512C105.401 13.848 105.681 14.248 105.889 14.712C106.097 15.176 106.201 15.672 106.201 16.2ZM117.356 41.616C118.028 42.432 118.756 43.008 119.54 43.344C120.34 43.68 121.204 43.848 122.132 43.848C123.028 43.848 123.836 43.68 124.556 43.344C125.276 43.008 125.884 42.496 126.38 41.808C126.892 41.12 127.284 40.256 127.556 39.216C127.828 38.16 127.964 36.92 127.964 35.496C127.964 34.056 127.844 32.84 127.604 31.848C127.38 30.84 127.052 30.024 126.62 29.4C126.188 28.776 125.66 28.32 125.036 28.032C124.428 27.744 123.732 27.6 122.948 27.6C121.716 27.6 120.668 27.864 119.804 28.392C118.94 28.904 118.124 29.632 117.356 30.576V41.616ZM117.044 26.736C118.052 25.6 119.196 24.68 120.476 23.976C121.756 23.272 123.26 22.92 124.988 22.92C126.332 22.92 127.556 23.2 128.66 23.76C129.78 24.32 130.74 25.136 131.54 26.208C132.356 27.264 132.98 28.576 133.412 30.144C133.86 31.696 134.084 33.48 134.084 35.496C134.084 37.336 133.836 39.04 133.34 40.608C132.844 42.176 132.132 43.536 131.204 44.688C130.292 45.84 129.18 46.744 127.868 47.4C126.572 48.04 125.116 48.36 123.5 48.36C122.124 48.36 120.948 48.152 119.972 47.736C118.996 47.304 118.124 46.712 117.356 45.96V56.04H111.428V23.376H115.052C115.82 23.376 116.324 23.736 116.564 24.456L117.044 26.736Z" fill="#F43F5E"/>
<path d="M22.4846 16.765L21.1638 13.7003L17.9693 12.2906L21.1638 10.9115L22.4846 8L23.8055 10.9115L27 12.2906L23.8055 13.7003L22.4846 16.765ZM22.4846 35L21.1638 32.0579L17.9693 30.6788L21.1638 29.2997L22.4846 26.2043L23.8055 29.2997L27 30.6788L23.8055 32.0579L22.4846 35ZM9 30.2804L6.17406 24.2429L0 21.4847L6.17406 18.7264L9 12.7196L11.8567 18.7264L18 21.4847L11.8567 24.2429L9 30.2804Z" fill="#F43F5E"/>
</svg>
